<svg width="240" height="43" fill="none" xmlns="http://www.w3.org/2000/svg"><path d="M81.923 10.298H76v21.819h5.923V10.298zM101.508 10.298h-5.923v11.42h-.17l-7.756-11.42H82.63v21.819h5.924V20.653h.128l7.883 11.464h4.943V10.298zM110.605 32.117c6.648 0 10.867-4.091 10.867-10.91 0-6.818-4.219-10.909-10.952-10.909h-8.31v21.819h8.395zm-2.472-5.029V15.327h2.089c3.409 0 5.284 1.32 5.284 5.88s-1.875 5.881-5.114 5.881h-2.259zM135.024 10.298v13.466c0 2.035-1.459 3.495-3.494 3.495s-3.495-1.46-3.495-3.495V10.298h-5.923v13.978c0 4.985 3.771 8.096 9.418 8.096 5.603 0 9.417-3.11 9.417-8.096V10.298h-5.923zM153.424 17.116h5.667c-.021-4.282-3.323-7.116-8.607-7.116-5.189 0-8.853 2.791-8.822 6.946-.01 3.41 2.355 5.305 6.222 6.136l2.173.47c2.429.532 3.26 1.14 3.282 2.13-.022 1.076-1.002 1.832-2.898 1.832-2.269 0-3.612-1.065-3.707-3.068h-5.625c.021 5.476 3.728 7.926 9.417 7.926 5.529 0 8.842-2.386 8.864-6.69-.022-3.324-2.003-5.657-6.818-6.69l-1.79-.384c-2.067-.437-2.994-1.044-2.941-2.088.011-.959.81-1.662 2.643-1.662 1.917 0 2.823.842 2.94 2.258z" fill="#333333"/><path d="M158.946 15.071h6.563v17.046h5.838V15.07h6.562v-4.773h-18.963v4.773zM178.039 32.117h5.923v-7.202h2.045l3.836 7.202h6.434l-4.432-8.14c2.323-1.118 3.708-3.238 3.708-6.264 0-4.645-3.249-7.415-8.097-7.415h-9.417v21.819zm5.923-11.804v-5.285h2.088c2.077 0 3.324.81 3.324 2.685 0 1.864-1.247 2.6-3.324 2.6h-2.088z" fill="#333333"/><path d="M201.901 10.298h-5.923v21.819h5.923V10.298z" fill="#333333"/><path d="M208.276 32.117l1.257-4.177h7.202l1.257 4.177h6.392l-7.202-21.819h-8.097l-7.201 21.819h6.392zm2.599-8.608l2.174-7.202h.17l2.173 7.202h-4.517zM224.385 32.117h14.744v-4.773h-8.821V10.298h-5.923v21.819z" fill="#333333"/><path fill="#333" d="M0 0h61v43H0z"/><path d="M12 32.117h5.923v-5.625l1.96-2.557 4.901 8.182h7.074l-7.543-12.103 7.372-9.716h-6.903l-6.562 8.821h-.299V10.3H12v21.818z" fill="#fff"/><path d="M39.91 32.415c5.338 0 9.099-2.717 9.077-6.563.022-2.674-1.768-4.56-5.284-4.943v-.17c2.6-.277 4.496-1.95 4.475-4.39C48.199 12.674 44.79 10 39.953 10c-4.943 0-8.459 2.823-8.48 6.818h5.668c.021-1.32 1.182-2.258 2.812-2.258 1.492 0 2.536.905 2.514 2.173.022 1.321-1.214 2.258-2.983 2.258H37.27v4.091h2.215c1.918 0 3.26.938 3.24 2.259.02 1.353-1.13 2.301-2.77 2.301-1.705 0-2.92-.905-2.941-2.173h-5.966c.021 4.07 3.697 6.946 8.864 6.946z" fill="#fff"/></svg>
